<svg xmlns="http://www.w3.org/2000/svg" xmlns:xlink="http://www.w3.org/1999/xlink" version="1.1" class="marks" width="1000" height="408" viewBox="0 0 1000 408"><rect width="1000" height="408" fill="white"/><g fill="none" stroke-miterlimit="10" transform="translate(35,5)"><g class="mark-group role-frame root" role="graphics-object" aria-roledescription="group mark container"><g transform="translate(0,0)"><path class="background" aria-hidden="true" d="M0.5,0.5h960v200h-960Z" stroke="#ddd"/><g><g class="mark-group role-axis" aria-hidden="true"><g transform="translate(0.5,0.5)"><path class="background" aria-hidden="true" d="M0,0h0v0h0Z" pointer-events="none"/><g><g class="mark-rule role-axis-grid" pointer-events="none"><line transform="translate(0,200)" x2="960" y2="0" stroke="#ddd" stroke-width="1" opacity="1"/><line transform="translate(0,156)" x2="960" y2="0" stroke="#ddd" stroke-width="1" opacity="1"/><line transform="translate(0,111)" x2="960" y2="0" stroke="#ddd" stroke-width="1" opacity="1"/><line transform="translate(0,67)" x2="960" y2="0" stroke="#ddd" stroke-width="1" opacity="1"/><line transform="translate(0,22)" x2="960" y2="0" stroke="#ddd" stroke-width="1" opacity="1"/></g></g><path class="foreground" aria-hidden="true" d="" pointer-events="none" display="none"/></g></g><g class="mark-group role-axis" role="graphics-symbol" aria-roledescription="axis" aria-label="X-axis titled 'location' for a discrete scale with 48 values: Allentown PA, Baltimore, MD, Bologna, Italy, Brooklyn, Brooklyn, NY, ending with up norf."><g transform="translate(0.5,200.5)"><path class="background" aria-hidden="true" d="M0,0h0v0h0Z" pointer-events="none"/><g><g class="mark-rule role-axis-tick" pointer-events="none"><line transform="translate(10,0)" x2="0" y2="5" stroke="#888" stroke-width="1" opacity="1"/><line transform="translate(30,0)" x2="0" y2="5" stroke="#888" stroke-width="1" opacity="1"/><line transform="translate(50,0)" x2="0" y2="5" stroke="#888" stroke-width="1" opacity="1"/><line transform="translate(70,0)" x2="0" y2="5" stroke="#888" stroke-width="1" opacity="1"/><line transform="translate(90,0)" x2="0" y2="5" stroke="#888" stroke-width="1" opacity="1"/><line transform="translate(110,0)" x2="0" y2="5" stroke="#888" stroke-width="1" opacity="1"/><line transform="translate(130,0)" x2="0" y2="5" stroke="#888" stroke-width="1" opacity="1"/><line transform="translate(150,0)" x2="0" y2="5" stroke="#888" stroke-width="1" opacity="1"/><line transform="translate(170,0)" x2="0" y2="5" stroke="#888" stroke-width="1" opacity="1"/><line transform="translate(190,0)" x2="0" y2="5" stroke="#888" stroke-width="1" opacity="1"/><line transform="translate(210,0)" x2="0" y2="5" stroke="#888" stroke-width="1" opacity="1"/><line transform="translate(230,0)" x2="0" y2="5" stroke="#888" stroke-width="1" opacity="1"/><line transform="translate(250,0)" x2="0" y2="5" stroke="#888" stroke-width="1" opacity="1"/><line transform="translate(270,0)" x2="0" y2="5" stroke="#888" stroke-width="1" opacity="1"/><line transform="translate(290,0)" x2="0" y2="5" stroke="#888" stroke-width="1" opacity="1"/><line transform="translate(310,0)" x2="0" y2="5" stroke="#888" stroke-width="1" opacity="1"/><line transform="translate(330,0)" x2="0" y2="5" stroke="#888" stroke-width="1" opacity="1"/><line transform="translate(350,0)" x2="0" y2="5" stroke="#888" stroke-width="1" opacity="1"/><line transform="translate(370,0)" x2="0" y2="5" stroke="#888" stroke-width="1" opacity="1"/><line transform="translate(390,0)" x2="0" y2="5" stroke="#888" stroke-width="1" opacity="1"/><line transform="translate(410,0)" x2="0" y2="5" stroke="#888" stroke-width="1" opacity="1"/><line transform="translate(430,0)" x2="0" y2="5" stroke="#888" stroke-width="1" opacity="1"/><line transform="translate(450,0)" x2="0" y2="5" stroke="#888" stroke-width="1" opacity="1"/><line transform="translate(470,0)" x2="0" y2="5" stroke="#888" stroke-width="1" opacity="1"/><line transform="translate(490,0)" x2="0" y2="5" stroke="#888" stroke-width="1" opacity="1"/><line transform="translate(510,0)" x2="0" y2="5" stroke="#888" stroke-width="1" opacity="1"/><line transform="translate(530,0)" x2="0" y2="5" stroke="#888" stroke-width="1" opacity="1"/><line transform="translate(550,0)" x2="0" y2="5" stroke="#888" stroke-width="1" opacity="1"/><line transform="translate(570,0)" x2="0" y2="5" stroke="#888" stroke-width="1" opacity="1"/><line transform="translate(590,0)" x2="0" y2="5" stroke="#888" stroke-width="1" opacity="1"/><line transform="translate(610,0)" x2="0" y2="5" stroke="#888" stroke-width="1" opacity="1"/><line transform="translate(630,0)" x2="0" y2="5" stroke="#888" stroke-width="1" opacity="1"/><line transform="translate(650,0)" x2="0" y2="5" stroke="#888" stroke-width="1" opacity="1"/><line transform="translate(670,0)" x2="0" y2="5" stroke="#888" stroke-width="1" opacity="1"/><line transform="translate(690,0)" x2="0" y2="5" stroke="#888" stroke-width="1" opacity="1"/><line transform="translate(710,0)" x2="0" y2="5" stroke="#888" stroke-width="1" opacity="1"/><line transform="translate(730,0)" x2="0" y2="5" stroke="#888" stroke-width="1" opacity="1"/><line transform="translate(750,0)" x2="0" y2="5" stroke="#888" stroke-width="1" opacity="1"/><line transform="translate(770,0)" x2="0" y2="5" stroke="#888" stroke-width="1" opacity="1"/><line transform="translate(790,0)" x2="0" y2="5" stroke="#888" stroke-width="1" opacity="1"/><line transform="translate(810,0)" x2="0" y2="5" stroke="#888" stroke-width="1" opacity="1"/><line transform="translate(830,0)" x2="0" y2="5" stroke="#888" stroke-width="1" opacity="1"/><line transform="translate(850,0)" x2="0" y2="5" stroke="#888" stroke-width="1" opacity="1"/><line transform="translate(870,0)" x2="0" y2="5" stroke="#888" stroke-width="1" opacity="1"/><line transform="translate(890,0)" x2="0" y2="5" stroke="#888" stroke-width="1" opacity="1"/><line transform="translate(910,0)" x2="0" y2="5" stroke="#888" stroke-width="1" opacity="1"/><line transform="translate(930,0)" x2="0" y2="5" stroke="#888" stroke-width="1" opacity="1"/><line transform="translate(950,0)" x2="0" y2="5" stroke="#888" stroke-width="1" opacity="1"/></g><g class="mark-text role-axis-label" pointer-events="none"><text text-anchor="end" transform="translate(9.5,7) rotate(270) translate(0,3)" font-family="sans-serif" font-size="10px" fill="#000" opacity="1">Allentown PA</text><text text-anchor="end" transform="translate(29.5,7) rotate(270) translate(0,3)" font-family="sans-serif" font-size="10px" fill="#000" opacity="1">Baltimore, MD</text><text text-anchor="end" transform="translate(49.5,7) rotate(270) translate(0,3)" font-family="sans-serif" font-size="10px" fill="#000" opacity="1">Bologna, Italy</text><text text-anchor="end" transform="translate(69.5,7) rotate(270) translate(0,3)" font-family="sans-serif" font-size="10px" fill="#000" opacity="1">Brooklyn</text><text text-anchor="end" transform="translate(89.5,7) rotate(270) translate(0,3)" font-family="sans-serif" font-size="10px" fill="#000" opacity="1">Brooklyn, NY</text><text text-anchor="end" transform="translate(109.5,7) rotate(270) translate(0,3)" font-family="sans-serif" font-size="10px" fill="#000" opacity="1">California, USA</text><text text-anchor="end" transform="translate(129.5,7) rotate(270) translate(0,3)" font-family="sans-serif" font-size="10px" fill="#000" opacity="1">College Park, MD</text><text text-anchor="end" transform="translate(149.5,7) rotate(270) translate(0,3)" font-family="sans-serif" font-size="10px" fill="#000" opacity="1">Down South,  UK</text><text text-anchor="end" transform="translate(169.5,7) rotate(270) translate(0,3)" font-family="sans-serif" font-size="10px" fill="#000" opacity="1">Duluth, Georgia</text><text text-anchor="end" transform="translate(189.5,7) rotate(270) translate(0,3)" font-family="sans-serif" font-size="10px" fill="#000" opacity="1">Edinburgh</text><text text-anchor="end" transform="translate(209.5,7) rotate(270) translate(0,3)" font-family="sans-serif" font-size="10px" fill="#000" opacity="1">Edinburgh, Scotland</text><text text-anchor="end" transform="translate(229.5,7) rotate(270) translate(0,3)" font-family="sans-serif" font-size="10px" fill="#000" opacity="1">Fairfax, VA</text><text text-anchor="end" transform="translate(249.5,7) rotate(270) translate(0,3)" font-family="sans-serif" font-size="10px" fill="#000" opacity="1">Glasgow, UK</text><text text-anchor="end" transform="translate(269.5,7) rotate(270) translate(0,3)" font-family="sans-serif" font-size="10px" fill="#000" opacity="1">Greenbelt, MD - Colum…</text><text text-anchor="end" transform="translate(289.5,7) rotate(270) translate(0,3)" font-family="sans-serif" font-size="10px" fill="#000" opacity="1">Harrisonburg, VA</text><text text-anchor="end" transform="translate(309.5,7) rotate(270) translate(0,3)" font-family="sans-serif" font-size="10px" fill="#000" opacity="1">Hyattsville, MD</text><text text-anchor="end" transform="translate(329.5,7) rotate(270) translate(0,3)" font-family="sans-serif" font-size="10px" fill="#000" opacity="1">In the library, where…</text><text text-anchor="end" transform="translate(349.5,7) rotate(270) translate(0,3)" font-family="sans-serif" font-size="10px" fill="#000" opacity="1">Indianapolis</text><text text-anchor="end" transform="translate(369.5,7) rotate(270) translate(0,3)" font-family="sans-serif" font-size="10px" fill="#000" opacity="1">London, England</text><text text-anchor="end" transform="translate(389.5,7) rotate(270) translate(0,3)" font-family="sans-serif" font-size="10px" fill="#000" opacity="1">London, UK</text><text text-anchor="end" transform="translate(409.5,7) rotate(270) translate(0,3)" font-family="sans-serif" font-size="10px" fill="#000" opacity="1">Los Angeles, CA</text><text text-anchor="end" transform="translate(429.5,7) rotate(270) translate(0,3)" font-family="sans-serif" font-size="10px" fill="#000" opacity="1">MD</text><text text-anchor="end" transform="translate(449.5,7) rotate(270) translate(0,3)" font-family="sans-serif" font-size="10px" fill="#000" opacity="1">Massachusetts</text><text text-anchor="end" transform="translate(469.5,7) rotate(270) translate(0,3)" font-family="sans-serif" font-size="10px" fill="#000" opacity="1">Massachusetts, USA</text><text text-anchor="end" transform="translate(489.5,7) rotate(270) translate(0,3)" font-family="sans-serif" font-size="10px" fill="#000" opacity="1">New Haven</text><text text-anchor="end" transform="translate(509.5,7) rotate(270) translate(0,3)" font-family="sans-serif" font-size="10px" fill="#000" opacity="1">New Jersey</text><text text-anchor="end" transform="translate(529.5,7) rotate(270) translate(0,3)" font-family="sans-serif" font-size="10px" fill="#000" opacity="1">New York, NY</text><text text-anchor="end" transform="translate(549.5,7) rotate(270) translate(0,3)" font-family="sans-serif" font-size="10px" fill="#000" opacity="1">Norfolk, VA</text><text text-anchor="end" transform="translate(569.5,7) rotate(270) translate(0,3)" font-family="sans-serif" font-size="10px" fill="#000" opacity="1">North Carolina</text><text text-anchor="end" transform="translate(589.5,7) rotate(270) translate(0,3)" font-family="sans-serif" font-size="10px" fill="#000" opacity="1">North Carolina, USA</text><text text-anchor="end" transform="translate(609.5,7) rotate(270) translate(0,3)" font-family="sans-serif" font-size="10px" fill="#000" opacity="1">Omniverse</text><text text-anchor="end" transform="translate(629.5,7) rotate(270) translate(0,3)" font-family="sans-serif" font-size="10px" fill="#000" opacity="1">Ottawa</text><text text-anchor="end" transform="translate(649.5,7) rotate(270) translate(0,3)" font-family="sans-serif" font-size="10px" fill="#000" opacity="1">PVD///NYC</text><text text-anchor="end" transform="translate(669.5,7) rotate(270) translate(0,3)" font-family="sans-serif" font-size="10px" fill="#000" opacity="1">Philadelphia, PA</text><text text-anchor="end" transform="translate(689.5,7) rotate(270) translate(0,3)" font-family="sans-serif" font-size="10px" fill="#000" opacity="1">Rochester, NY</text><text text-anchor="end" transform="translate(709.5,7) rotate(270) translate(0,3)" font-family="sans-serif" font-size="10px" fill="#000" opacity="1">Saratoga Springs, UT</text><text text-anchor="end" transform="translate(729.5,7) rotate(270) translate(0,3)" font-family="sans-serif" font-size="10px" fill="#000" opacity="1">Silver Spring, MD</text><text text-anchor="end" transform="translate(749.5,7) rotate(270) translate(0,3)" font-family="sans-serif" font-size="10px" fill="#000" opacity="1">Somerville, MA</text><text text-anchor="end" transform="translate(769.5,7) rotate(270) translate(0,3)" font-family="sans-serif" font-size="10px" fill="#000" opacity="1">The New Museum | 235 …</text><text text-anchor="end" transform="translate(789.5,7) rotate(270) translate(0,3)" font-family="sans-serif" font-size="10px" fill="#000" opacity="1">Tucson, AZ</text><text text-anchor="end" transform="translate(809.5,7) rotate(270) translate(0,3)" font-family="sans-serif" font-size="10px" fill="#000" opacity="1">United Kingdom</text><text text-anchor="end" transform="translate(829.5,7) rotate(270) translate(0,3)" font-family="sans-serif" font-size="10px" fill="#000" opacity="1">Washington, D.C.</text><text text-anchor="end" transform="translate(849.5,7) rotate(270) translate(0,3)" font-family="sans-serif" font-size="10px" fill="#000" opacity="1">Washington, DC</text><text text-anchor="end" transform="translate(869.5,7) rotate(270) translate(0,3)" font-family="sans-serif" font-size="10px" fill="#000" opacity="1">Waterloo, Ontario</text><text text-anchor="end" transform="translate(889.5,7) rotate(270) translate(0,3)" font-family="sans-serif" font-size="10px" fill="#000" opacity="1">eXistenZ</text><text text-anchor="end" transform="translate(909.5,7) rotate(270) translate(0,3)" font-family="sans-serif" font-size="10px" fill="#000" opacity="1">in the network</text><text text-anchor="end" transform="translate(929.5,7) rotate(270) translate(0,3)" font-family="sans-serif" font-size="10px" fill="#000" opacity="1">london, ontario</text><text text-anchor="end" transform="translate(949.5,7) rotate(270) translate(0,3)" font-family="sans-serif" font-size="10px" fill="#000" opacity="1">up norf.</text></g><g class="mark-rule role-axis-domain" pointer-events="none"><line transform="translate(0,0)" x2="960" y2="0" stroke="#888" stroke-width="1" opacity="1"/></g><g class="mark-text role-axis-title" pointer-events="none"><text text-anchor="middle" transform="translate(480,196)" font-family="sans-serif" font-size="11px" font-weight="bold" fill="#000" opacity="1">location</text></g></g><path class="foreground" aria-hidden="true" d="" pointer-events="none" display="none"/></g></g><g class="mark-group role-axis" role="graphics-symbol" aria-roledescription="axis" aria-label="Y-axis titled 'count' for a linear scale with values from 0 to 9"><g transform="translate(0.5,0.5)"><path class="background" aria-hidden="true" d="M0,0h0v0h0Z" pointer-events="none"/><g><g class="mark-rule role-axis-tick" pointer-events="none"><line transform="translate(0,200)" x2="-5" y2="0" stroke="#888" stroke-width="1" opacity="1"/><line transform="translate(0,156)" x2="-5" y2="0" stroke="#888" stroke-width="1" opacity="1"/><line transform="translate(0,111)" x2="-5" y2="0" stroke="#888" stroke-width="1" opacity="1"/><line transform="translate(0,67)" x2="-5" y2="0" stroke="#888" stroke-width="1" opacity="1"/><line transform="translate(0,22)" x2="-5" y2="0" stroke="#888" stroke-width="1" opacity="1"/></g><g class="mark-text role-axis-label" pointer-events="none"><text text-anchor="end" transform="translate(-7,203)" font-family="sans-serif" font-size="10px" fill="#000" opacity="1">0</text><text text-anchor="end" transform="translate(-7,158.55555555555557)" font-family="sans-serif" font-size="10px" fill="#000" opacity="1">2</text><text text-anchor="end" transform="translate(-7,114.11111111111111)" font-family="sans-serif" font-size="10px" fill="#000" opacity="1">4</text><text text-anchor="end" transform="translate(-7,69.66666666666667)" font-family="sans-serif" font-size="10px" fill="#000" opacity="1">6</text><text text-anchor="end" transform="translate(-7,25.222222222222232)" font-family="sans-serif" font-size="10px" fill="#000" opacity="1">8</text></g><g class="mark-rule role-axis-domain" pointer-events="none"><line transform="translate(0,200)" x2="0" y2="-200" stroke="#888" stroke-width="1" opacity="1"/></g><g class="mark-text role-axis-title" pointer-events="none"><text text-anchor="middle" transform="translate(-19,100) rotate(-90) translate(0,-2)" font-family="sans-serif" font-size="11px" font-weight="bold" fill="#000" opacity="1">count</text></g></g><path class="foreground" aria-hidden="true" d="" pointer-events="none" display="none"/></g></g><g class="mark-rect role-mark marks" role="graphics-object" aria-roledescription="rect mark container"><path aria-label="location: Fairfax, VA; count: 1" role="graphics-symbol" aria-roledescription="bar" d="M221,177.77777777777777h18v22.22222222222223h-18Z" fill="#4c78a8"/><path aria-label="location: Hyattsville, MD; count: 1" role="graphics-symbol" aria-roledescription="bar" d="M301,177.77777777777777h18v22.22222222222223h-18Z" fill="#4c78a8"/><path aria-label="location: Indianapolis; count: 1" role="graphics-symbol" aria-roledescription="bar" d="M341,177.77777777777777h18v22.22222222222223h-18Z" fill="#4c78a8"/><path aria-label="location: Silver Spring, MD; count: 9" role="graphics-symbol" aria-roledescription="bar" d="M721,0h18v200h-18Z" fill="#4c78a8"/><path aria-label="location: Edinburgh, Scotland; count: 1" role="graphics-symbol" aria-roledescription="bar" d="M201,177.77777777777777h18v22.22222222222223h-18Z" fill="#4c78a8"/><path aria-label="location: MD; count: 1" role="graphics-symbol" aria-roledescription="bar" d="M421,177.77777777777777h18v22.22222222222223h-18Z" fill="#4c78a8"/><path aria-label="location: United Kingdom; count: 1" role="graphics-symbol" aria-roledescription="bar" d="M801,177.77777777777777h18v22.22222222222223h-18Z" fill="#4c78a8"/><path aria-label="location: Brooklyn; count: 1" role="graphics-symbol" aria-roledescription="bar" d="M61,177.77777777777777h18v22.22222222222223h-18Z" fill="#4c78a8"/><path aria-label="location: Omniverse; count: 2" role="graphics-symbol" aria-roledescription="bar" d="M601,155.55555555555557h18v44.44444444444443h-18Z" fill="#4c78a8"/><path aria-label="location: North Carolina; count: 1" role="graphics-symbol" aria-roledescription="bar" d="M561,177.77777777777777h18v22.22222222222223h-18Z" fill="#4c78a8"/><path aria-label="location: Bologna, Italy; count: 1" role="graphics-symbol" aria-roledescription="bar" d="M41,177.77777777777777h18v22.22222222222223h-18Z" fill="#4c78a8"/><path aria-label="location: Washington, DC; count: 3" role="graphics-symbol" aria-roledescription="bar" d="M841,133.33333333333334h18v66.66666666666666h-18Z" fill="#4c78a8"/><path aria-label="location: Tucson, AZ; count: 2" role="graphics-symbol" aria-roledescription="bar" d="M781,155.55555555555557h18v44.44444444444443h-18Z" fill="#4c78a8"/><path aria-label="location: London, England; count: 1" role="graphics-symbol" aria-roledescription="bar" d="M361,177.77777777777777h18v22.22222222222223h-18Z" fill="#4c78a8"/><path aria-label="location: london, ontario; count: 1" role="graphics-symbol" aria-roledescription="bar" d="M921,177.77777777777777h18v22.22222222222223h-18Z" fill="#4c78a8"/><path aria-label="location: In the library, where else?; count: 1" role="graphics-symbol" aria-roledescription="bar" d="M321,177.77777777777777h18v22.22222222222223h-18Z" fill="#4c78a8"/><path aria-label="location: London, UK; count: 1" role="graphics-symbol" aria-roledescription="bar" d="M381,177.77777777777777h18v22.22222222222223h-18Z" fill="#4c78a8"/><path aria-label="location: New Haven; count: 1" role="graphics-symbol" aria-roledescription="bar" d="M481,177.77777777777777h18v22.22222222222223h-18Z" fill="#4c78a8"/><path aria-label="location: Washington, D.C.; count: 1" role="graphics-symbol" aria-roledescription="bar" d="M821,177.77777777777777h18v22.22222222222223h-18Z" fill="#4c78a8"/><path aria-label="location: Saratoga Springs, UT; count: 1" role="graphics-symbol" aria-roledescription="bar" d="M701,177.77777777777777h18v22.22222222222223h-18Z" fill="#4c78a8"/><path aria-label="location: The New Museum | 235 Bowery; count: 2" role="graphics-symbol" aria-roledescription="bar" d="M761,155.55555555555557h18v44.44444444444443h-18Z" fill="#4c78a8"/><path aria-label="location: College Park, MD; count: 1" role="graphics-symbol" aria-roledescription="bar" d="M121,177.77777777777777h18v22.22222222222223h-18Z" fill="#4c78a8"/><path aria-label="location: Greenbelt, MD - Columbia, SC; count: 1" role="graphics-symbol" aria-roledescription="bar" d="M261,177.77777777777777h18v22.22222222222223h-18Z" fill="#4c78a8"/><path aria-label="location: Harrisonburg, VA; count: 1" role="graphics-symbol" aria-roledescription="bar" d="M281,177.77777777777777h18v22.22222222222223h-18Z" fill="#4c78a8"/><path aria-label="location: Brooklyn, NY; count: 1" role="graphics-symbol" aria-roledescription="bar" d="M81,177.77777777777777h18v22.22222222222223h-18Z" fill="#4c78a8"/><path aria-label="location: eXistenZ; count: 4" role="graphics-symbol" aria-roledescription="bar" d="M881,111.11111111111111h18v88.88888888888889h-18Z" fill="#4c78a8"/><path aria-label="location: Waterloo, Ontario; count: 3" role="graphics-symbol" aria-roledescription="bar" d="M861,133.33333333333334h18v66.66666666666666h-18Z" fill="#4c78a8"/><path aria-label="location: North Carolina, USA; count: 1" role="graphics-symbol" aria-roledescription="bar" d="M581,177.77777777777777h18v22.22222222222223h-18Z" fill="#4c78a8"/><path aria-label="location: in the network; count: 3" role="graphics-symbol" aria-roledescription="bar" d="M901,133.33333333333334h18v66.66666666666666h-18Z" fill="#4c78a8"/><path aria-label="location: Allentown PA; count: 1" role="graphics-symbol" aria-roledescription="bar" d="M1,177.77777777777777h18v22.22222222222223h-18Z" fill="#4c78a8"/><path aria-label="location: up norf.; count: 1" role="graphics-symbol" aria-roledescription="bar" d="M941,177.77777777777777h18v22.22222222222223h-18Z" fill="#4c78a8"/><path aria-label="location: Los Angeles, CA; count: 1" role="graphics-symbol" aria-roledescription="bar" d="M401,177.77777777777777h18v22.22222222222223h-18Z" fill="#4c78a8"/><path aria-label="location: Glasgow, UK; count: 4" role="graphics-symbol" aria-roledescription="bar" d="M241,111.11111111111111h18v88.88888888888889h-18Z" fill="#4c78a8"/><path aria-label="location: Philadelphia, PA; count: 1" role="graphics-symbol" aria-roledescription="bar" d="M661,177.77777777777777h18v22.22222222222223h-18Z" fill="#4c78a8"/><path aria-label="location: California, USA; count: 1" role="graphics-symbol" aria-roledescription="bar" d="M101,177.77777777777777h18v22.22222222222223h-18Z" fill="#4c78a8"/><path aria-label="location: Massachusetts; count: 2" role="graphics-symbol" aria-roledescription="bar" d="M441,155.55555555555557h18v44.44444444444443h-18Z" fill="#4c78a8"/><path aria-label="location: Duluth, Georgia; count: 1" role="graphics-symbol" aria-roledescription="bar" d="M161,177.77777777777777h18v22.22222222222223h-18Z" fill="#4c78a8"/><path aria-label="location: Somerville, MA; count: 1" role="graphics-symbol" aria-roledescription="bar" d="M741,177.77777777777777h18v22.22222222222223h-18Z" fill="#4c78a8"/><path aria-label="location: PVD///NYC; count: 1" role="graphics-symbol" aria-roledescription="bar" d="M641,177.77777777777777h18v22.22222222222223h-18Z" fill="#4c78a8"/><path aria-label="location: Norfolk, VA; count: 1" role="graphics-symbol" aria-roledescription="bar" d="M541,177.77777777777777h18v22.22222222222223h-18Z" fill="#4c78a8"/><path aria-label="location: New Jersey; count: 1" role="graphics-symbol" aria-roledescription="bar" d="M501,177.77777777777777h18v22.22222222222223h-18Z" fill="#4c78a8"/><path aria-label="location: Edinburgh; count: 1" role="graphics-symbol" aria-roledescription="bar" d="M181,177.77777777777777h18v22.22222222222223h-18Z" fill="#4c78a8"/><path aria-label="location: Down South,  UK; count: 1" role="graphics-symbol" aria-roledescription="bar" d="M141,177.77777777777777h18v22.22222222222223h-18Z" fill="#4c78a8"/><path aria-label="location: Rochester, NY; count: 1" role="graphics-symbol" aria-roledescription="bar" d="M681,177.77777777777777h18v22.22222222222223h-18Z" fill="#4c78a8"/><path aria-label="location: Ottawa; count: 1" role="graphics-symbol" aria-roledescription="bar" d="M621,177.77777777777777h18v22.22222222222223h-18Z" fill="#4c78a8"/><path aria-label="location: Massachusetts, USA; count: 1" role="graphics-symbol" aria-roledescription="bar" d="M461,177.77777777777777h18v22.22222222222223h-18Z" fill="#4c78a8"/><path aria-label="location: New York, NY; count: 1" role="graphics-symbol" aria-roledescription="bar" d="M521,177.77777777777777h18v22.22222222222223h-18Z" fill="#4c78a8"/><path aria-label="location: Baltimore, MD; count: 1" role="graphics-symbol" aria-roledescription="bar" d="M21,177.77777777777777h18v22.22222222222223h-18Z" fill="#4c78a8"/></g></g><path class="foreground" aria-hidden="true" d="" display="none"/></g></g></g></svg>