<svg xmlns="http://www.w3.org/2000/svg" xmlns:xlink="http://www.w3.org/1999/xlink" version="1.1" class="marks" width="368" height="227" viewBox="0 0 368 227"><rect width="368" height="227" fill="white"/><g fill="none" stroke-miterlimit="10" transform="translate(25,22)"><g class="mark-group role-frame root" role="graphics-object" aria-roledescription="group mark container"><g transform="translate(0,0)"><path class="background" aria-hidden="true" d="M0,0h200v200h-200Z"/><g><g class="mark-arc role-mark marks" role="graphics-object" aria-roledescription="arc mark container"><path aria-label="count: 8; hashtag: #webarchiving" role="graphics-symbol" aria-roledescription="arc mark" transform="translate(100,100)" d="M-1.8369701987210297e-14,-100A100,100,0,1,0,6.123233995736766e-15,100L3.061616997868383e-15,50A50,50,0,1,1,-9.184850993605149e-15,-50Z" fill="#72b7b2"/><path aria-label="count: 4; hashtag: #ethics" role="graphics-symbol" aria-roledescription="arc mark" transform="translate(100,100)" d="M70.71067811865476,70.71067811865474A100,100,0,0,0,70.71067811865476,-70.71067811865474L35.35533905932738,-35.35533905932737A50,50,0,0,1,35.35533905932738,35.35533905932737Z" fill="#f58518"/><path aria-label="count: 2; hashtag: #GoBlue" role="graphics-symbol" aria-roledescription="arc mark" transform="translate(100,100)" d="M70.71067811865476,-70.71067811865474A100,100,0,0,0,6.123233995736766e-15,-100L3.061616997868383e-15,-50A50,50,0,0,1,35.35533905932738,-35.35533905932737Z" fill="#4c78a8"/><path aria-label="count: 1; hashtag: #liulockout" role="graphics-symbol" aria-roledescription="arc mark" transform="translate(100,100)" d="M38.26834323650898,92.38795325112868A100,100,0,0,0,70.71067811865476,70.71067811865474L35.35533905932738,35.35533905932737A50,50,0,0,1,19.13417161825449,46.19397662556434Z" fill="#e45756"/><path aria-label="count: 1; hashtag: #liulockout" role="graphics-symbol" aria-roledescription="arc mark" transform="translate(100,100)" d="M6.123233995736766e-15,100A100,100,0,0,0,38.26834323650898,92.38795325112868L19.13417161825449,46.19397662556434A50,50,0,0,1,3.061616997868383e-15,50Z" fill="#e45756"/></g><g class="mark-group role-legend" role="graphics-symbol" aria-roledescription="legend" aria-label="Symbol legend titled 'hashtag' for fill color with 4 values: #GoBlue, #ethics, #liulockout, #webarchiving"><g transform="translate(218,0)"><path class="background" aria-hidden="true" d="M0,0h120v66h-120Z" pointer-events="none"/><g><g class="mark-group role-legend-entry"><g transform="translate(0,16)"><path class="background" aria-hidden="true" d="M0,0h0v0h0Z" pointer-events="none"/><g><g class="mark-group role-scope" role="graphics-object" aria-roledescription="group mark container"><g transform="translate(0,0)"><path class="background" aria-hidden="true" d="M0,0h120v11h-120Z" pointer-events="none" opacity="1"/><g><g class="mark-symbol role-legend-symbol" pointer-events="none"><path transform="translate(6,6)" d="M5,0A5,5,0,1,1,-5,0A5,5,0,1,1,5,0" fill="#4c78a8" stroke-width="1.5" opacity="1"/></g><g class="mark-text role-legend-label" pointer-events="none"><text text-anchor="start" transform="translate(16,9)" font-family="sans-serif" font-size="10px" fill="#000" opacity="1">#GoBlue</text></g></g><path class="foreground" aria-hidden="true" d="" pointer-events="none" display="none"/></g><g transform="translate(0,13)"><path class="background" aria-hidden="true" d="M0,0h120v11h-120Z" pointer-events="none" opacity="1"/><g><g class="mark-symbol role-legend-symbol" pointer-events="none"><path transform="translate(6,6)" d="M5,0A5,5,0,1,1,-5,0A5,5,0,1,1,5,0" fill="#f58518" stroke-width="1.5" opacity="1"/></g><g class="mark-text role-legend-label" pointer-events="none"><text text-anchor="start" transform="translate(16,9)" font-family="sans-serif" font-size="10px" fill="#000" opacity="1">#ethics</text></g></g><path class="foreground" aria-hidden="true" d="" pointer-events="none" display="none"/></g><g transform="translate(0,26)"><path class="background" aria-hidden="true" d="M0,0h120v11h-120Z" pointer-events="none" opacity="1"/><g><g class="mark-symbol role-legend-symbol" pointer-events="none"><path transform="translate(6,6)" d="M5,0A5,5,0,1,1,-5,0A5,5,0,1,1,5,0" fill="#e45756" stroke-width="1.5" opacity="1"/></g><g class="mark-text role-legend-label" pointer-events="none"><text text-anchor="start" transform="translate(16,9)" font-family="sans-serif" font-size="10px" fill="#000" opacity="1">#liulockout</text></g></g><path class="foreground" aria-hidden="true" d="" pointer-events="none" display="none"/></g><g transform="translate(0,39)"><path class="background" aria-hidden="true" d="M0,0h120v11h-120Z" pointer-events="none" opacity="1"/><g><g class="mark-symbol role-legend-symbol" pointer-events="none"><path transform="translate(6,6)" d="M5,0A5,5,0,1,1,-5,0A5,5,0,1,1,5,0" fill="#72b7b2" stroke-width="1.5" opacity="1"/></g><g class="mark-text role-legend-label" pointer-events="none"><text text-anchor="start" transform="translate(16,9)" font-family="sans-serif" font-size="10px" fill="#000" opacity="1">#webarchiving</text></g></g><path class="foreground" aria-hidden="true" d="" pointer-events="none" display="none"/></g></g></g><path class="foreground" aria-hidden="true" d="" pointer-events="none" display="none"/></g></g><g class="mark-text role-legend-title" pointer-events="none"><text text-anchor="start" transform="translate(0,9)" font-family="sans-serif" font-size="11px" font-weight="bold" fill="#000" opacity="1">hashtag</text></g></g><path class="foreground" aria-hidden="true" d="" pointer-events="none" display="none"/></g></g><g class="mark-group role-title"><g transform="translate(100,-17)"><path class="background" aria-hidden="true" d="M0,0h0v0h0Z" pointer-events="none"/><g><g class="mark-text role-title-text" role="graphics-symbol" aria-roledescription="title" aria-label="Title text 'Hashtag Associate#EAW18'" pointer-events="none"><text text-anchor="middle" transform="translate(0,10)" font-family="sans-serif" font-size="13px" font-weight="bold" fill="#000" opacity="1">Hashtag Associate#EAW18</text></g></g><path class="foreground" aria-hidden="true" d="" pointer-events="none" display="none"/></g></g></g><path class="foreground" aria-hidden="true" d="" display="none"/></g></g></g></svg>